<?xml version="1.0" encoding="utf-8"?>
<!-- Generator: Adobe Illustrator 27.3.1, SVG Export Plug-In . SVG Version: 6.00 Build 0)  -->
<svg version="1.1" id="Layer_1" xmlns="http://www.w3.org/2000/svg" xmlns:xlink="http://www.w3.org/1999/xlink" x="0px" y="0px"
	 viewBox="0 0 215 215" style="enable-background:new 0 0 215 215;" xml:space="preserve">
<style type="text/css">
	.st0{fill:none;stroke:#000000;stroke-width:5;stroke-miterlimit:10;}
	.st1{fill:#231F20;}
	.st2{fill:#64BB46;}
</style>
<path class="st0" d="M158.4,212.7H55.7c-29.8,0-53.9-24.1-53.9-53.9V56.7c0-29.8,24.1-53.9,53.9-53.9h102.7
	c29.8,0,53.9,24.1,53.9,53.9v102.1C212.3,188.6,188.2,212.7,158.4,212.7z"/>
<path class="st1" d="M93.2,66.4c1.5,0,2.5,0,3.4,0c28.8,0,57.6,0,86.5,0c1.7,0,2.6,0.5,3.3,2c3.3,6.9,5.7,14.1,7.4,21.6
	c2,9,2,18.1,1.3,27.1c-0.7,8.5-3.5,17-6.1,24.9c-0.5,1.4-1.4,3.7-2.1,5c-9.9,18.1-23.3,31.5-40.5,40.1c-7.1,3.5-14.6,6.2-22.4,7.6
	c-8.4,1.5-17,2.1-25.6,1.2c-9.9-1.1-19.4-3.5-28.4-7.7c-14.2-6.6-25.8-16.3-34.9-28.9c-5.6-7.7-9.8-16.2-12.5-25.3
	c-1.4-4.6-2.3-9.4-3.5-14.5c4.7,0,8.8-0.1,13,0.1c0.4,0,1.1,1.1,1.2,1.7c1.4,7.4,3.7,14.4,7.2,21c7.6,14.5,18.7,25.4,33.3,32.7
	c10.9,5.4,22.5,8.2,34.6,7.9c16.2-0.4,30.9-5.5,43.8-15.3c10.8-8.2,18.9-18.6,24.1-31.1c3-7.2,4.8-14.8,5.4-22.8
	c0.8-10.3-0.5-20.2-3.5-30c0-0.1-0.1-0.3-0.1-0.4c-2.6-6.1,0.6-1.8-14.8-4.6c-1.3-0.2-2.6-0.2-3.9,0c-14.2,2.5-14.2-0.9-14.2,3.7
	c0,25.1,0,50.2,0,75.3c-3.7,0.2-7.3-0.1-11,0.1c-2,0.1-2.4-0.7-2.4-2.5c0.1-14.3,0-28.6,0-43c0-10,0-20,0-29.9c0-4.4,0-1.6-12-3.4
	c-1.5-0.2-3-0.3-4.5-0.2c-7.3,0.6-9.7,2.1-11.2-0.9C101.7,73.3,98.2,69.6,93.2,66.4z"/>
<path class="st2" d="M41.7,78.9c2.2-3.8,4.4-7.7,6.8-11.5c0.3-0.5,1.2-0.9,1.9-0.9c9.9-0.1,19.8-0.2,29.7,0c10,0.2,19.5,8,22,17.1
	c3.4,11.9-1.9,22.8-10.5,28.1c-4,2.5-8.4,3.7-13.1,3.7c-1.2,0-2.4,0-3.6,0c-0.1,0.2-0.2,0.4-0.3,0.5c5.1,6.8,10.2,13.7,15.4,20.5
	c5.1,6.8,10.3,13.6,15.7,20.7c-2.3,0.3-1.9,0.8-6.3-1.8c-7.3,2.4-9.7,3.1-11.7,0.5c-7.1-9.5-14.3-18.9-21.4-28.4
	c-2.7-3.5-5.3-7-7.9-10.6c-0.8-1.1-1.6-1.4-2.9-1.4c-11.3,0-22.7,0-34,0.1c-1.9,0-2.6-0.5-2.6-2.5c-0.3-8.8,0.1-17.5,2.2-26.1
	c2.4-9.5,6-18.4,11.3-26.6c7.3-11.5,16.8-20.8,28.4-28c9.4-5.8,19.5-9.8,30.3-11.7c9.7-1.8,19.5-1.9,29.3-0.4
	c23.7,3.8,42.7,15.3,57.3,34.2c1.9,2.4,3.5,5.1,5.6,8.1c-3.3,0-6-0.3-8.6,0.1c-5,0.6-8.5-0.9-11.9-5.1c-6.8-8.3-15.6-14.4-25.5-18.7
	c-11.7-5.1-23.9-7.3-36.6-6c-20.3,2-37.2,10.7-50.6,26.2C39.7,70.7,34.1,84.5,32.2,99.9c-0.2,1.7,0.3,2.4,2.1,2.4
	c14.4,0,28.9,0,43.3,0c5.7,0,10.9-1.8,12.7-11.3C89,83,84.2,79.7,77.9,79.7c-11.1-0.1-22.2,0-33.4,0c-0.8,0-1.6,0-2.3,0
	C42.1,79.4,41.9,79.2,41.7,78.9z"/>
</svg>
