<?xml version="1.0" encoding="utf-8"?>
<!-- Generator: Adobe Illustrator 27.3.1, SVG Export Plug-In . SVG Version: 6.00 Build 0)  -->
<svg version="1.1" id="Layer_1" xmlns="http://www.w3.org/2000/svg" xmlns:xlink="http://www.w3.org/1999/xlink" x="0px" y="0px"
	 viewBox="0 0 72 72" style="enable-background:new 0 0 72 72;" xml:space="preserve">
<style type="text/css">
	.st0{fill:#365FAB;stroke:#FFFFFF;stroke-width:3;stroke-miterlimit:10;}
	.st1{fill:#FFFFFF;}
	.st2{fill:#64BB46;}
</style>
<g>
	<path class="st0" d="M52.3,70.7H20.5c-10.2,0-18.5-8.3-18.5-18.5V20.7c0-10.2,8.3-18.5,18.5-18.5h31.8c10.2,0,18.5,8.3,18.5,18.5
		v31.6C70.8,62.5,62.5,70.7,52.3,70.7z"/>
	<g>
		<path class="st1" d="M31.9,23c0.5,0,0.8,0,1.1,0c9.4,0,18.8,0,28.2,0c0.5,0,0.8,0.2,1.1,0.6c1.1,2.3,1.9,4.6,2.4,7.1
			c0.7,2.9,0.7,5.9,0.4,8.8c-0.2,2.8-1.1,5.5-2,8.1c-0.1,0.5-0.5,1.2-0.7,1.6c-3.2,5.9-7.6,10.3-13.2,13.1c-2.3,1.2-4.8,2-7.3,2.5
			c-2.8,0.5-5.5,0.7-8.4,0.4c-3.2-0.4-6.3-1.1-9.3-2.5c-4.6-2.1-8.4-5.3-11.4-9.4C11.1,50.8,9.7,48,8.8,45c-0.4-1.5-0.7-3.1-1.1-4.7
			c1.5,0,2.9,0,4.2,0c0.1,0,0.4,0.4,0.4,0.6c0.4,2.4,1.2,4.7,2.4,6.8c2.5,4.7,6.1,8.3,10.9,10.7c3.6,1.8,7.3,2.7,11.3,2.6
			c5.3-0.1,10.1-1.8,14.3-5c3.5-2.7,6.2-6.1,7.9-10.2c1-2.4,1.6-4.8,1.8-7.4c0.3-3.4-0.2-6.6-1.2-9.8c0,0,0-0.1,0-0.1
			c-0.8-2,0.2-0.6-4.8-1.5c-0.4-0.1-0.9-0.1-1.3,0c-4.6,0.8-4.6-0.3-4.6,1.2c0,8.2,0,16.4,0,24.6c-1.2,0.1-2.4,0-3.6,0
			c-0.6,0-0.8-0.2-0.8-0.8c0-4.7,0-9.3,0-14c0-3.3,0-6.5,0-9.8c0-1.4,0-0.5-3.9-1.1c-0.5-0.1-1-0.1-1.5-0.1
			c-2.4,0.2-3.2,0.7-3.6-0.3C34.7,25.3,33.5,24,31.9,23z"/>
		<path class="st2" d="M15.1,27.1c0.7-1.3,1.4-2.5,2.2-3.8c0.1-0.2,0.4-0.3,0.6-0.3c3.2,0,6.5-0.1,9.7,0c3.3,0.1,6.4,2.6,7.2,5.6
			c1.1,3.9-0.6,7.5-3.4,9.2c-1.3,0.8-2.7,1.2-4.3,1.2c-0.4,0-0.8,0-1.2,0c0,0.1-0.1,0.1-0.1,0.2c1.7,2.2,3.3,4.5,5,6.7
			c1.7,2.2,3.4,4.4,5.1,6.7c-0.7,0.1-0.6,0.3-2.1-0.6c-2.4,0.8-3.2,1-3.8,0.2c-2.3-3.1-4.7-6.2-7-9.3c-0.9-1.1-1.7-2.3-2.6-3.5
			C20.3,39.1,20,39,19.6,39c-3.7,0-7.4,0-11.1,0c-0.6,0-0.8-0.2-0.9-0.8c-0.1-2.9,0-5.7,0.7-8.5c0.8-3.1,2-6,3.7-8.7
			c2.4-3.7,5.5-6.8,9.3-9.2c3.1-1.9,6.4-3.2,9.9-3.8c3.2-0.6,6.4-0.6,9.6-0.1c7.7,1.2,13.9,5,18.7,11.1c0.6,0.8,1.1,1.7,1.8,2.6
			c-1.1,0-1.9-0.1-2.8,0c-1.6,0.2-2.8-0.3-3.9-1.7c-2.2-2.7-5.1-4.7-8.3-6.1c-3.8-1.6-7.8-2.4-12-2c-6.6,0.6-12.2,3.5-16.5,8.5
			c-3.3,3.9-5.2,8.3-5.8,13.4c-0.1,0.5,0.1,0.8,0.7,0.8c4.7,0,9.4,0,14.1,0c1.9,0,3.5-0.6,4.1-3.7c-0.4-2.6-2-3.7-4-3.7
			c-3.6,0-7.3,0-10.9,0c-0.3,0-0.5,0-0.8,0C15.2,27.2,15.2,27.2,15.1,27.1z"/>
	</g>
</g>
</svg>
